<svg width="47" height="71" viewBox="0 0 47 71" fill="none" xmlns="http://www.w3.org/2000/svg">
<path id="Arrow 1" d="M43.815 66.9652L43.9948 66.4987L43.9948 66.4987L43.815 66.9652ZM46.7027 68.4571C46.9552 68.3451 47.069 68.0497 46.957 67.7973L45.1323 63.6839C45.0203 63.4314 44.7249 63.3176 44.4725 63.4296C44.2201 63.5415 44.1062 63.8369 44.2182 64.0894L45.8402 67.7457L42.1838 69.3677C41.9314 69.4797 41.8175 69.7751 41.9295 70.0275C42.0415 70.28 42.3369 70.3938 42.5893 70.2818L46.7027 68.4571ZM1.49911 1.02589C1.51333 0.750117 1.30129 0.515032 1.02551 0.500817C0.749736 0.486602 0.514651 0.698639 0.500436 0.974415L1.49911 1.02589ZM0.439316 2.4874C0.431243 2.76342 0.64846 2.99373 0.924485 3.0018C1.20051 3.00987 1.43082 2.79266 1.43889 2.51663L0.439316 2.4874ZM1.41817 5.4953C1.41393 5.21919 1.18666 4.9988 0.91055 5.00304C0.634441 5.00728 0.414048 5.23455 0.418289 5.51066L1.41817 5.4953ZM0.532317 8.53176C0.548907 8.8074 0.785809 9.0174 1.06145 9.00081C1.3371 8.98422 1.5471 8.74732 1.53051 8.47168L0.532317 8.53176ZM1.77604 11.4399C1.74711 11.1652 1.50103 10.9661 1.22641 10.995C0.951783 11.0239 0.752612 11.27 0.781545 11.5446L1.77604 11.4399ZM1.16579 14.5438C1.20702 14.8168 1.4618 15.0048 1.73485 14.9635C2.00789 14.9223 2.19581 14.6675 2.15458 14.3945L1.16579 14.5438ZM2.66559 17.3298C2.61212 17.0589 2.34916 16.8826 2.07824 16.936C1.80732 16.9895 1.63104 17.2525 1.68451 17.5234L2.66559 17.3298ZM2.33653 20.4764C2.40212 20.7446 2.67273 20.9089 2.94098 20.8433C3.20922 20.7777 3.37351 20.5071 3.30792 20.2389L2.33653 20.4764ZM4.08023 23.116C4.00267 22.851 3.72495 22.699 3.45992 22.7765C3.1949 22.8541 3.04293 23.1318 3.12049 23.3969L4.08023 23.116ZM4.03468 26.2791C4.12405 26.5403 4.40831 26.6797 4.66959 26.5903C4.93087 26.5009 5.07023 26.2167 4.98086 25.9554L4.03468 26.2791ZM6.00788 28.7515C5.90689 28.4945 5.61666 28.368 5.35965 28.469C5.10264 28.57 4.97616 28.8603 5.07716 29.1173L6.00788 28.7515ZM6.2457 31.9059C6.3581 32.1581 6.65369 32.2715 6.90593 32.1591C7.15816 32.0467 7.27152 31.7511 7.15912 31.4989L6.2457 31.9059ZM8.43229 34.1922C8.30871 33.9452 8.00835 33.8452 7.7614 33.9688C7.51444 34.0923 7.41442 34.3927 7.53799 34.6397L8.43229 34.1922ZM8.95125 37.3129C9.08574 37.5541 9.39028 37.6406 9.63145 37.5061C9.87264 37.3716 9.95913 37.0671 9.82464 36.8259L8.95125 37.3129ZM11.3333 39.3947C11.1881 39.1598 10.88 39.087 10.6451 39.2321C10.4102 39.3772 10.3374 39.6853 10.4825 39.9203L11.3333 39.3947ZM12.1287 42.4565C12.2842 42.6848 12.5952 42.7437 12.8235 42.5882C13.0517 42.4328 13.1106 42.1217 12.9551 41.8935L12.1287 42.4565ZM14.6871 44.3174C14.5215 44.0963 14.2082 44.0513 13.9871 44.2169C13.7661 44.3824 13.7211 44.6957 13.8866 44.9168L14.6871 44.3174ZM15.7528 47.2961C15.928 47.5095 16.2431 47.5405 16.4565 47.3652C16.6699 47.19 16.7009 46.8749 16.5256 46.6615L15.7528 47.2961ZM18.4671 48.921C18.2825 48.7157 17.9664 48.6988 17.761 48.8834C17.5557 49.068 17.5388 49.3842 17.7235 49.5895L18.4671 48.921ZM19.7946 51.7923C19.9882 51.9892 20.3048 51.9919 20.5017 51.7982C20.6986 51.6046 20.7012 51.2881 20.5076 51.0912L19.7946 51.7923ZM22.6433 53.1677C22.441 52.9797 22.1247 52.9912 21.9366 53.1935C21.7486 53.3957 21.7602 53.7121 21.9624 53.9001L22.6433 53.1677ZM24.2226 55.9087C24.4331 56.0874 24.7486 56.0617 24.9274 55.8512C25.1061 55.6408 25.0804 55.3252 24.8699 55.1465L24.2226 55.9087ZM27.1833 57.0234C26.965 56.8543 26.6509 56.8941 26.4818 57.1124C26.3127 57.3307 26.3525 57.6448 26.5708 57.8139L27.1833 57.0234ZM29.0024 59.6118C29.2281 59.771 29.54 59.717 29.6992 59.4914C29.8583 59.2657 29.8044 58.9537 29.5787 58.7946L29.0024 59.6118ZM32.0516 60.4565C31.819 60.3077 31.5098 60.3756 31.361 60.6082C31.2121 60.8408 31.28 61.15 31.5126 61.2988L32.0516 60.4565ZM34.0954 62.871C34.3345 63.0092 34.6403 62.9275 34.7786 62.6885C34.9168 62.4494 34.8351 62.1436 34.596 62.0053L34.0954 62.871ZM37.2071 63.4382C36.9621 63.3108 36.6602 63.4061 36.5328 63.6511C36.4054 63.8961 36.5007 64.198 36.7457 64.3254L37.2071 63.4382ZM39.4586 65.6597C39.7091 65.776 40.0064 65.6673 40.1227 65.4168C40.239 65.1663 40.1302 64.869 39.8798 64.7527L39.4586 65.6597ZM42.6088 65.9467C42.3534 65.8416 42.0612 65.9635 41.9562 66.2189C41.8512 66.4743 41.9731 66.7665 42.2285 66.8715L42.6088 65.9467ZM44.3065 67.6905C44.5641 67.7898 44.8535 67.6614 44.9528 67.4037C45.0521 67.1461 44.9238 66.8567 44.6661 66.7574L44.3065 67.6905ZM46.0086 67.2748C45.7509 67.1755 45.4615 67.3038 45.3622 67.5615C45.2629 67.8192 45.3913 68.1086 45.6489 68.2079L46.0086 67.2748ZM0.500436 0.974415C0.474403 1.47946 0.454045 1.98381 0.439316 2.4874L1.43889 2.51663C1.4534 2.02046 1.47346 1.52353 1.49911 1.02589L0.500436 0.974415ZM0.418289 5.51066C0.43382 6.52164 0.471959 7.52887 0.532317 8.53176L1.53051 8.47168C1.47105 7.48366 1.43347 6.49134 1.41817 5.4953L0.418289 5.51066ZM0.781545 11.5446C0.887425 12.5496 1.01564 13.5496 1.16579 14.5438L2.15458 14.3945C2.00666 13.415 1.88035 12.4299 1.77604 11.4399L0.781545 11.5446ZM1.68451 17.5234C1.88007 18.5144 2.09755 19.4989 2.33653 20.4764L3.30792 20.2389C3.07249 19.2759 2.85824 18.306 2.66559 17.3298L1.68451 17.5234ZM3.12049 23.3969C3.404 24.3656 3.70888 25.3266 4.03468 26.2791L4.98086 25.9554C4.65989 25.0171 4.35954 24.0704 4.08023 23.116L3.12049 23.3969ZM5.07716 29.1173C5.44612 30.0562 5.83578 30.986 6.2457 31.9059L7.15912 31.4989C6.75527 30.5926 6.37138 29.6766 6.00788 28.7515L5.07716 29.1173ZM7.53799 34.6397C7.98928 35.5416 8.46051 36.4329 8.95125 37.3129L9.82464 36.8259C9.34116 35.9589 8.8769 35.0807 8.43229 34.1922L7.53799 34.6397ZM10.4825 39.9203C11.0123 40.7778 11.5612 41.6235 12.1287 42.4565L12.9551 41.8935C12.396 41.0728 11.8552 40.2396 11.3333 39.3947L10.4825 39.9203ZM13.8866 44.9168C14.4906 45.7233 15.1128 46.5167 15.7528 47.2961L16.5256 46.6615C15.8951 45.8936 15.2821 45.112 14.6871 44.3174L13.8866 44.9168ZM17.7235 49.5895C18.3967 50.3385 19.0873 51.073 19.7946 51.7923L20.5076 51.0912C19.8107 50.3825 19.1304 49.6589 18.4671 48.921L17.7235 49.5895ZM21.9624 53.9001C22.6997 54.5855 23.4532 55.2553 24.2226 55.9087L24.8699 55.1465C24.112 54.5028 23.3696 53.843 22.6433 53.1677L21.9624 53.9001ZM26.5708 57.8139C27.3663 58.4302 28.1769 59.0297 29.0024 59.6118L29.5787 58.7946C28.7655 58.2211 27.9669 57.6305 27.1833 57.0234L26.5708 57.8139ZM31.5126 61.2988C32.3595 61.8408 33.2206 62.3651 34.0954 62.871L34.596 62.0053C33.7342 61.5069 32.886 60.9904 32.0516 60.4565L31.5126 61.2988ZM36.7457 64.3254C37.6371 64.7889 38.5416 65.2339 39.4586 65.6597L39.8798 64.7527C38.9763 64.3332 38.0852 63.8948 37.2071 63.4382L36.7457 64.3254ZM42.2285 66.8715C42.6944 67.0631 43.1633 67.2499 43.6352 67.4318L43.9948 66.4987C43.5299 66.3195 43.0679 66.1354 42.6088 65.9467L42.2285 66.8715ZM43.6352 67.4318L44.3065 67.6905L44.6661 66.7574L43.9948 66.4987L43.6352 67.4318ZM45.6489 68.2079L46.3202 68.4666L46.6798 67.5335L46.0086 67.2748L45.6489 68.2079ZM43.815 66.9652L43.9948 66.4987L43.9948 66.4987L43.815 66.9652ZM46.7027 68.4571C46.9552 68.3451 47.069 68.0497 46.957 67.7973L45.1323 63.6839C45.0203 63.4314 44.7249 63.3176 44.4725 63.4296C44.2201 63.5415 44.1062 63.8369 44.2182 64.0894L45.8402 67.7457L42.1838 69.3677C41.9314 69.4797 41.8175 69.7751 41.9295 70.0275C42.0415 70.28 42.3369 70.3938 42.5893 70.2818L46.7027 68.4571ZM1.49911 1.02589C1.51333 0.750117 1.30129 0.515032 1.02551 0.500817C0.749736 0.486602 0.514651 0.698639 0.500436 0.974415L1.49911 1.02589ZM0.439316 2.4874C0.431243 2.76342 0.64846 2.99373 0.924485 3.0018C1.20051 3.00987 1.43082 2.79266 1.43889 2.51663L0.439316 2.4874ZM1.41817 5.4953C1.41393 5.21919 1.18666 4.9988 0.91055 5.00304C0.634441 5.00728 0.414048 5.23455 0.418289 5.51066L1.41817 5.4953ZM0.532317 8.53176C0.548907 8.8074 0.785809 9.0174 1.06145 9.00081C1.3371 8.98422 1.5471 8.74732 1.53051 8.47168L0.532317 8.53176ZM1.77604 11.4399C1.74711 11.1652 1.50103 10.9661 1.22641 10.995C0.951783 11.0239 0.752612 11.27 0.781545 11.5446L1.77604 11.4399ZM1.16579 14.5438C1.20702 14.8168 1.4618 15.0048 1.73485 14.9635C2.00789 14.9223 2.19581 14.6675 2.15458 14.3945L1.16579 14.5438ZM2.66559 17.3298C2.61212 17.0589 2.34916 16.8826 2.07824 16.936C1.80732 16.9895 1.63104 17.2525 1.68451 17.5234L2.66559 17.3298ZM2.33653 20.4764C2.40212 20.7446 2.67273 20.9089 2.94098 20.8433C3.20922 20.7777 3.37351 20.5071 3.30792 20.2389L2.33653 20.4764ZM4.08023 23.116C4.00267 22.851 3.72495 22.699 3.45992 22.7765C3.1949 22.8541 3.04293 23.1318 3.12049 23.3969L4.08023 23.116ZM4.03468 26.2791C4.12405 26.5403 4.40831 26.6797 4.66959 26.5903C4.93087 26.5009 5.07023 26.2167 4.98086 25.9554L4.03468 26.2791ZM6.00788 28.7515C5.90689 28.4945 5.61666 28.368 5.35965 28.469C5.10264 28.57 4.97616 28.8603 5.07716 29.1173L6.00788 28.7515ZM6.2457 31.9059C6.3581 32.1581 6.65369 32.2715 6.90593 32.1591C7.15816 32.0467 7.27152 31.7511 7.15912 31.4989L6.2457 31.9059ZM8.43229 34.1922C8.30871 33.9452 8.00835 33.8452 7.7614 33.9688C7.51444 34.0923 7.41442 34.3927 7.53799 34.6397L8.43229 34.1922ZM8.95125 37.3129C9.08574 37.5541 9.39028 37.6406 9.63145 37.5061C9.87264 37.3716 9.95913 37.0671 9.82464 36.8259L8.95125 37.3129ZM11.3333 39.3947C11.1881 39.1598 10.88 39.087 10.6451 39.2321C10.4102 39.3772 10.3374 39.6853 10.4825 39.9203L11.3333 39.3947ZM12.1287 42.4565C12.2842 42.6848 12.5952 42.7437 12.8235 42.5882C13.0517 42.4328 13.1106 42.1217 12.9551 41.8935L12.1287 42.4565ZM14.6871 44.3174C14.5215 44.0963 14.2082 44.0513 13.9871 44.2169C13.7661 44.3824 13.7211 44.6957 13.8866 44.9168L14.6871 44.3174ZM15.7528 47.2961C15.928 47.5095 16.2431 47.5405 16.4565 47.3652C16.6699 47.19 16.7009 46.8749 16.5256 46.6615L15.7528 47.2961ZM18.4671 48.921C18.2825 48.7157 17.9664 48.6988 17.761 48.8834C17.5557 49.068 17.5388 49.3842 17.7235 49.5895L18.4671 48.921ZM19.7946 51.7923C19.9882 51.9892 20.3048 51.9919 20.5017 51.7982C20.6986 51.6046 20.7012 51.2881 20.5076 51.0912L19.7946 51.7923ZM22.6433 53.1677C22.441 52.9797 22.1247 52.9912 21.9366 53.1935C21.7486 53.3957 21.7602 53.7121 21.9624 53.9001L22.6433 53.1677ZM24.2226 55.9087C24.4331 56.0874 24.7486 56.0617 24.9274 55.8512C25.1061 55.6408 25.0804 55.3252 24.8699 55.1465L24.2226 55.9087ZM27.1833 57.0234C26.965 56.8543 26.6509 56.8941 26.4818 57.1124C26.3127 57.3307 26.3525 57.6448 26.5708 57.8139L27.1833 57.0234ZM29.0024 59.6118C29.2281 59.771 29.54 59.717 29.6992 59.4914C29.8583 59.2657 29.8044 58.9537 29.5787 58.7946L29.0024 59.6118ZM32.0516 60.4565C31.819 60.3077 31.5098 60.3756 31.361 60.6082C31.2121 60.8408 31.28 61.15 31.5126 61.2988L32.0516 60.4565ZM34.0954 62.871C34.3345 63.0092 34.6403 62.9275 34.7786 62.6885C34.9168 62.4494 34.8351 62.1436 34.596 62.0053L34.0954 62.871ZM37.2071 63.4382C36.9621 63.3108 36.6602 63.4061 36.5328 63.6511C36.4054 63.8961 36.5007 64.198 36.7457 64.3254L37.2071 63.4382ZM39.4586 65.6597C39.7091 65.776 40.0064 65.6673 40.1227 65.4168C40.239 65.1663 40.1302 64.869 39.8798 64.7527L39.4586 65.6597ZM42.6088 65.9467C42.3534 65.8416 42.0612 65.9635 41.9562 66.2189C41.8512 66.4743 41.9731 66.7665 42.2285 66.8715L42.6088 65.9467ZM44.3065 67.6905C44.5641 67.7898 44.8535 67.6614 44.9528 67.4037C45.0521 67.1461 44.9238 66.8567 44.6661 66.7574L44.3065 67.6905ZM46.0086 67.2748C45.7509 67.1755 45.4615 67.3038 45.3622 67.5615C45.2629 67.8192 45.3913 68.1086 45.6489 68.2079L46.0086 67.2748ZM0.500436 0.974415C0.474403 1.47946 0.454045 1.98381 0.439316 2.4874L1.43889 2.51663C1.4534 2.02046 1.47346 1.52353 1.49911 1.02589L0.500436 0.974415ZM0.418289 5.51066C0.43382 6.52164 0.471959 7.52887 0.532317 8.53176L1.53051 8.47168C1.47105 7.48366 1.43347 6.49134 1.41817 5.4953L0.418289 5.51066ZM0.781545 11.5446C0.887425 12.5496 1.01564 13.5496 1.16579 14.5438L2.15458 14.3945C2.00666 13.415 1.88035 12.4299 1.77604 11.4399L0.781545 11.5446ZM1.68451 17.5234C1.88007 18.5144 2.09755 19.4989 2.33653 20.4764L3.30792 20.2389C3.07249 19.2759 2.85824 18.306 2.66559 17.3298L1.68451 17.5234ZM3.12049 23.3969C3.404 24.3656 3.70888 25.3266 4.03468 26.2791L4.98086 25.9554C4.65989 25.0171 4.35954 24.0704 4.08023 23.116L3.12049 23.3969ZM5.07716 29.1173C5.44612 30.0562 5.83578 30.986 6.2457 31.9059L7.15912 31.4989C6.75527 30.5926 6.37138 29.6766 6.00788 28.7515L5.07716 29.1173ZM7.53799 34.6397C7.98928 35.5416 8.46051 36.4329 8.95125 37.3129L9.82464 36.8259C9.34116 35.9589 8.8769 35.0807 8.43229 34.1922L7.53799 34.6397ZM10.4825 39.9203C11.0123 40.7778 11.5612 41.6235 12.1287 42.4565L12.9551 41.8935C12.396 41.0728 11.8552 40.2396 11.3333 39.3947L10.4825 39.9203ZM13.8866 44.9168C14.4906 45.7233 15.1128 46.5167 15.7528 47.2961L16.5256 46.6615C15.8951 45.8936 15.2821 45.112 14.6871 44.3174L13.8866 44.9168ZM17.7235 49.5895C18.3967 50.3385 19.0873 51.073 19.7946 51.7923L20.5076 51.0912C19.8107 50.3825 19.1304 49.6589 18.4671 48.921L17.7235 49.5895ZM21.9624 53.9001C22.6997 54.5855 23.4532 55.2553 24.2226 55.9087L24.8699 55.1465C24.112 54.5028 23.3696 53.843 22.6433 53.1677L21.9624 53.9001ZM26.5708 57.8139C27.3663 58.4302 28.1769 59.0297 29.0024 59.6118L29.5787 58.7946C28.7655 58.2211 27.9669 57.6305 27.1833 57.0234L26.5708 57.8139ZM31.5126 61.2988C32.3595 61.8408 33.2206 62.3651 34.0954 62.871L34.596 62.0053C33.7342 61.5069 32.886 60.9904 32.0516 60.4565L31.5126 61.2988ZM36.7457 64.3254C37.6371 64.7889 38.5416 65.2339 39.4586 65.6597L39.8798 64.7527C38.9763 64.3332 38.0852 63.8948 37.2071 63.4382L36.7457 64.3254ZM42.2285 66.8715C42.6944 67.0631 43.1633 67.2499 43.6352 67.4318L43.9948 66.4987C43.5299 66.3195 43.0679 66.1354 42.6088 65.9467L42.2285 66.8715ZM43.6352 67.4318L44.3065 67.6905L44.6661 66.7574L43.9948 66.4987L43.6352 67.4318ZM45.6489 68.2079L46.3202 68.4666L46.6798 67.5335L46.0086 67.2748L45.6489 68.2079Z" fill="black"/>
</svg>
