<svg width="24" height="18" viewBox="0 0 24 18" fill="none" xmlns="http://www.w3.org/2000/svg">
<g id="logos:google-gmail" clip-path="url(#clip0_78_1217)">
<path id="Vector" d="M5.45456 17.9116V8.68687L2.57878 6.06959L0 4.61719V16.2837C0 17.1845 0.733594 17.9116 1.63641 17.9116H5.45456Z" fill="#4285F4"/>
<path id="Vector_2" d="M18.5454 17.9115H22.3636C23.2691 17.9115 24 17.1817 24 16.2836V4.61719L21.0791 6.28074L18.5454 8.68677V17.9115Z" fill="#34A853"/>
<path id="Vector_3" d="M5.45456 8.68646L5.06325 5.08208L5.45456 1.63232L12 6.51601L18.5454 1.63232L18.9832 4.89583L18.5454 8.68646L12 13.5701L5.45456 8.68646Z" fill="#EA4335"/>
<path id="Vector_4" d="M18.5454 1.63247V8.6866L24 4.61692V2.44639C24 0.433277 21.69 -0.71434 20.0728 0.492966L18.5454 1.63247Z" fill="#FBBC04"/>
<path id="Vector_5" d="M0 4.61697L2.50866 6.48878L5.45456 8.68665V1.63251L3.92719 0.493009C2.30719 -0.71439 0 0.43332 0 2.44634V4.61697Z" fill="#C5221F"/>
</g>
<defs>
<clipPath id="clip0_78_1217">
<rect width="24" height="18" fill="white"/>
</clipPath>
</defs>
</svg>
