<svg width="85" height="100" viewBox="0 0 85 100" fill="none" xmlns="http://www.w3.org/2000/svg">
<g id="Group 9">
<path id="Vector" d="M47.143 66.1911C47.143 67.3655 46.6998 68.4917 45.911 69.3221C45.1221 70.1525 44.0522 70.619 42.9366 70.619C41.821 70.619 40.7511 70.1525 39.9623 69.3221C39.1735 68.4917 38.7303 67.3655 38.7303 66.1911C38.7303 65.0167 39.1735 63.8904 39.9623 63.06C40.7511 62.2296 41.821 61.7631 42.9366 61.7631C44.0522 61.7631 45.1221 62.2296 45.911 63.06C46.6998 63.8904 47.143 65.0167 47.143 66.1911ZM46.0914 29.6603C46.0914 28.7796 45.759 27.9349 45.1674 27.312C44.5757 26.6892 43.7733 26.3394 42.9366 26.3394C42.0999 26.3394 41.2975 26.6892 40.7059 27.312C40.1142 27.9349 39.7819 28.7796 39.7819 29.6603V49.5862C39.7819 50.467 40.1142 51.3117 40.7059 51.9345C41.2975 52.5573 42.0999 52.9072 42.9366 52.9072C43.7733 52.9072 44.5757 52.5573 45.1674 51.9345C45.759 51.3117 46.0914 50.467 46.0914 49.5862V29.6603Z" fill="#1C2DCF"/>
<path id="Vector_2" d="M40.6652 0.378139C42.1416 -0.126047 43.7316 -0.126047 45.208 0.378139L79.9103 12.223C81.3891 12.728 82.6781 13.7129 83.5924 15.0365C84.5067 16.3601 84.9995 17.9545 85 19.5911V41.8372C85 69.2463 69.1421 89.2386 45.4562 98.6481C43.8321 99.2918 42.0411 99.2918 40.417 98.6481C16.7353 89.2342 0.873245 69.2463 0.873245 41.8372V19.5911C0.873245 16.2258 2.93435 13.2591 5.96291 12.223L40.6652 0.378139ZM43.2605 6.69242C43.05 6.62067 42.8233 6.62067 42.6127 6.69242L7.91045 18.5461C7.69957 18.618 7.51565 18.7581 7.38496 18.9466C7.25428 19.1351 7.1835 19.3622 7.18275 19.5955V41.8372C7.18275 66.0184 20.9795 83.8277 42.6422 92.4312C42.8321 92.5059 43.0412 92.5059 43.2311 92.4312C64.8937 83.8277 78.6905 66.0139 78.6905 41.8372V19.5911C78.6897 19.3578 78.619 19.1306 78.4883 18.9422C78.3576 18.7537 78.1737 18.6135 77.9628 18.5417L43.2605 6.69242Z" fill="#1C2DCF"/>
</g>
</svg>
