<svg width="26" height="26" viewBox="0 0 26 26" fill="none" xmlns="http://www.w3.org/2000/svg">
<g id="basil:instagram-outline">
<path id="Vector" d="M18 6.75C18 6.41848 18.1317 6.10054 18.3661 5.86612C18.6005 5.6317 18.9185 5.5 19.25 5.5C19.5815 5.5 19.8995 5.6317 20.1339 5.86612C20.3683 6.10054 20.5 6.41848 20.5 6.75C20.5 7.08152 20.3683 7.39946 20.1339 7.63388C19.8995 7.8683 19.5815 8 19.25 8C18.9185 8 18.6005 7.8683 18.3661 7.63388C18.1317 7.39946 18 7.08152 18 6.75Z" fill="#1C2DCF"/>
<path id="Vector_2" fill-rule="evenodd" clip-rule="evenodd" d="M13 7.0625C11.4253 7.0625 9.91505 7.68806 8.80155 8.80155C7.68806 9.91505 7.0625 11.4253 7.0625 13C7.0625 14.5747 7.68806 16.0849 8.80155 17.1984C9.91505 18.3119 11.4253 18.9375 13 18.9375C14.5747 18.9375 16.0849 18.3119 17.1984 17.1984C18.3119 16.0849 18.9375 14.5747 18.9375 13C18.9375 11.4253 18.3119 9.91505 17.1984 8.80155C16.0849 7.68806 14.5747 7.0625 13 7.0625ZM8.9375 13C8.9375 11.9226 9.36551 10.8892 10.1274 10.1274C10.8892 9.36551 11.9226 8.9375 13 8.9375C14.0774 8.9375 15.1108 9.36551 15.8726 10.1274C16.6345 10.8892 17.0625 11.9226 17.0625 13C17.0625 14.0774 16.6345 15.1108 15.8726 15.8726C15.1108 16.6345 14.0774 17.0625 13 17.0625C11.9226 17.0625 10.8892 16.6345 10.1274 15.8726C9.36551 15.1108 8.9375 14.0774 8.9375 13Z" fill="#1C2DCF"/>
<path id="Vector_3" fill-rule="evenodd" clip-rule="evenodd" d="M19.5725 1.54109C15.2042 1.05662 10.7958 1.05662 6.42752 1.54109C3.91252 1.82234 1.88127 3.80359 1.58627 6.33109C1.0689 10.7619 1.0689 15.2378 1.58627 19.6686C1.88127 22.1961 3.91127 24.1773 6.42752 24.4586C10.7958 24.942 15.2042 24.942 19.5725 24.4586C22.0875 24.1773 24.1188 22.1961 24.4138 19.6686C24.9311 15.2378 24.9311 10.7619 24.4138 6.33109C24.1188 3.80359 22.0888 1.82234 19.5725 1.54109ZM6.63502 3.40359C10.8654 2.93447 15.1346 2.93447 19.365 3.40359C21.0275 3.59109 22.3588 4.90234 22.5525 6.54984C23.0539 10.8352 23.0539 15.1645 22.5525 19.4498C22.4523 20.2561 22.0832 21.0051 21.5048 21.5758C20.9265 22.1464 20.1726 22.5055 19.365 22.5948C15.1346 23.064 10.8654 23.064 6.63502 22.5948C5.82744 22.5055 5.07358 22.1464 4.49521 21.5758C3.91684 21.0051 3.54773 20.2561 3.44752 19.4498C2.94609 15.1645 2.94609 10.8352 3.44752 6.54984C3.54773 5.74354 3.91684 4.99456 4.49521 4.4239C5.07358 3.85324 5.82744 3.49297 6.63502 3.40359Z" fill="#1C2DCF"/>
</g>
</svg>
